<?xml version="1.0" encoding="UTF-8"?>
<svg version="1.1" xmlns="http://www.w3.org/2000/svg" width="200" height="200">
<path d="M0 0 C66 0 132 0 200 0 C200 66 200 132 200 200 C134 200 68 200 0 200 C0 134 0 68 0 0 Z " fill="#FCFEFE" transform="translate(0,0)"/>
<path d="M0 0 C1.98 0 3.96 0 6 0 C7.47494377 2.94988753 7.14735642 5.93788551 7.14526367 9.171875 C7.15030159 10.27940125 7.15030159 10.27940125 7.15544128 11.40930176 C7.16496038 13.85621816 7.16689475 16.30306622 7.16796875 18.75 C7.17118022 20.44628935 7.1745442 22.14257843 7.17805481 23.83886719 C7.18404816 27.39649091 7.18589445 30.95409033 7.18530273 34.51171875 C7.185201 39.07849414 7.19886416 43.64511444 7.21607494 48.21185303 C7.22717214 51.71533937 7.22922266 55.21878792 7.22869301 58.72229004 C7.22987615 60.4064589 7.23431654 62.09062864 7.24202538 63.77478027 C7.25178124 66.12600705 7.24896509 68.47689318 7.24291992 70.828125 C7.24853943 71.52844849 7.25415894 72.22877197 7.25994873 72.95031738 C7.22831716 77.77168284 7.22831716 77.77168284 5 80 C0.44444444 79.44444444 0.44444444 79.44444444 -1 78 C-1.10025884 75.63765248 -1.13618937 73.30453142 -1.12939453 70.94165039 C-1.13114685 70.20344559 -1.13289917 69.46524078 -1.13470459 68.70466614 C-1.13912366 66.25230594 -1.13618464 63.80001725 -1.1328125 61.34765625 C-1.1334856 59.64993781 -1.13445567 57.95221946 -1.13571167 56.25450134 C-1.13718878 52.69089849 -1.13503395 49.12732065 -1.13037109 45.5637207 C-1.12467812 40.98911322 -1.12794999 36.41456446 -1.13394356 31.83995914 C-1.13755252 28.3321844 -1.13640896 24.82442364 -1.13381577 21.31664848 C-1.1331472 19.62969391 -1.13397247 17.94273809 -1.13629532 16.25578499 C-1.13882685 13.89973706 -1.13497396 11.54378491 -1.12939453 9.18774414 C-1.13141876 8.48584961 -1.13344299 7.78395508 -1.13552856 7.06079102 C-1.11426364 2.22852728 -1.11426364 2.22852728 0 0 Z " fill="#214573" transform="translate(97,25)"/>
<path d="M0 0 C1.875 0.6875 1.875 0.6875 2.875 1.6875 C2.97527795 4.08559149 3.01118676 6.45489498 3.00439453 8.85351562 C3.00614685 9.60308029 3.00789917 10.35264496 3.00970459 11.12492371 C3.0141232 13.61455569 3.0111851 16.10411723 3.0078125 18.59375 C3.00848554 20.31628432 3.00945556 22.03881855 3.01071167 23.76135254 C3.01218865 27.37622988 3.01003407 30.99108255 3.00537109 34.60595703 C2.9996738 39.25016493 3.0029528 43.89431504 3.00894356 48.53852081 C3.01254916 52.09686726 3.01141059 55.6551999 3.00881577 59.21354675 C3.00814649 60.92644762 3.00897493 62.63934972 3.01129532 64.35224915 C3.01382183 66.74202822 3.0099813 69.13171241 3.00439453 71.52148438 C3.00641876 72.23632492 3.00844299 72.95116547 3.01052856 73.68766785 C2.98926269 78.57323731 2.98926269 78.57323731 1.875 79.6875 C-0.5625 79.875 -0.5625 79.875 -3.125 79.6875 C-5.55657276 77.25592724 -5.37038412 75.95698 -5.40716553 72.63781738 C-5.4034494 71.58733215 -5.4034494 71.58733215 -5.3996582 70.515625 C-5.40476913 69.77727417 -5.40988007 69.03892334 -5.41514587 68.27819824 C-5.42907586 65.83121698 -5.42808276 63.38451625 -5.42578125 60.9375 C-5.42966599 59.24120986 -5.43400019 57.5449207 -5.43876648 55.84863281 C-5.44623577 52.29098356 -5.44593206 48.73343354 -5.44067383 45.17578125 C-5.43487469 40.6089125 -5.45181728 36.04244872 -5.4750185 31.47564697 C-5.48972432 27.97214367 -5.49063193 24.46873865 -5.48750877 20.96520996 C-5.48802346 19.28103838 -5.49328871 17.59686151 -5.50332069 15.91271973 C-5.51560878 13.56133413 -5.50894046 11.21074708 -5.49731445 8.859375 C-5.50495819 8.15905151 -5.51260193 7.45872803 -5.52047729 6.73718262 C-5.4992218 4.79980469 -5.4992218 4.79980469 -5.125 1.6875 C-2.125 -0.3125 -2.125 -0.3125 0 0 Z " fill="#538EC6" transform="translate(141.125,95.3125)"/>
<path d="M0 0 C4.55555556 0.55555556 4.55555556 0.55555556 6 2 C6.10556617 4.36222218 6.14678498 6.69535384 6.14526367 9.05834961 C6.15030159 10.16565681 6.15030159 10.16565681 6.15544128 11.29533386 C6.16497882 13.74768738 6.16689579 16.19997282 6.16796875 18.65234375 C6.17117939 20.35006235 6.17454331 22.04778066 6.17805481 23.74549866 C6.1840531 27.30909873 6.18589399 30.87267453 6.18530273 34.4362793 C6.18520107 39.01093044 6.1988542 43.5854265 6.21607494 48.16004086 C6.22717344 51.6678184 6.22922261 55.17555821 6.22869301 58.68335152 C6.22987634 60.37031145 6.23431778 62.05727227 6.24202538 63.74421501 C6.25178209 66.10034025 6.24896453 68.45612558 6.24291992 70.81225586 C6.24853943 71.51415039 6.25415894 72.21604492 6.25994873 72.93920898 C6.22831577 77.77168423 6.22831577 77.77168423 4 80 C-0.55555556 79.44444444 -0.55555556 79.44444444 -2 78 C-2.10556617 75.63777782 -2.14678498 73.30464616 -2.14526367 70.94165039 C-2.14862228 70.20344559 -2.1519809 69.46524078 -2.15544128 68.70466614 C-2.16497882 66.25231262 -2.16689579 63.80002718 -2.16796875 61.34765625 C-2.17117939 59.64993765 -2.17454331 57.95221934 -2.17805481 56.25450134 C-2.1840531 52.69090127 -2.18589399 49.12732547 -2.18530273 45.5637207 C-2.18520107 40.98906956 -2.1988542 36.4145735 -2.21607494 31.83995914 C-2.22717344 28.3321816 -2.22922261 24.82444179 -2.22869301 21.31664848 C-2.22987634 19.62968855 -2.23431778 17.94272773 -2.24202538 16.25578499 C-2.25178209 13.89965975 -2.24896453 11.54387442 -2.24291992 9.18774414 C-2.24853943 8.48584961 -2.25415894 7.78395508 -2.25994873 7.06079102 C-2.22831577 2.22831577 -2.22831577 2.22831577 0 0 Z " fill="#224470" transform="translate(57,95)"/>
<path d="M0 0 C4.55555556 0.55555556 4.55555556 0.55555556 6 2 C6.10440176 3.89153876 6.13854891 5.78699063 6.14526367 7.68139648 C6.15164352 8.89613144 6.15802338 10.11086639 6.16459656 11.3624115 C6.16612513 12.69863851 6.16723914 14.03486606 6.16796875 15.37109375 C6.17117973 16.73250871 6.17454368 18.09392331 6.17805481 19.45533752 C6.18405216 22.31276245 6.1858941 25.17015711 6.18530273 28.02758789 C6.18520109 31.69424251 6.19885258 35.36070356 6.21607494 39.02731228 C6.22717819 41.84024451 6.22922246 44.65312971 6.22869301 47.46608162 C6.22987569 48.81811248 6.23431353 50.17014447 6.24202538 51.52215385 C6.25179073 53.41114701 6.24769195 55.30019661 6.24291992 57.18920898 C6.24434494 58.26541 6.24576996 59.34161102 6.24723816 60.45042419 C6 63 6 63 4 65 C-0.55555556 64.44444444 -0.55555556 64.44444444 -2 63 C-2.10440176 61.10846124 -2.13854891 59.21300937 -2.14526367 57.31860352 C-2.15164352 56.10386856 -2.15802338 54.88913361 -2.16459656 53.6375885 C-2.16612513 52.30136149 -2.16723914 50.96513394 -2.16796875 49.62890625 C-2.17117973 48.26749129 -2.17454368 46.90607669 -2.17805481 45.54466248 C-2.18405216 42.68723755 -2.1858941 39.82984289 -2.18530273 36.97241211 C-2.18520109 33.30575749 -2.19885258 29.63929644 -2.21607494 25.97268772 C-2.22717819 23.15975549 -2.22922246 20.34687029 -2.22869301 17.53391838 C-2.22987569 16.18188752 -2.23431353 14.82985553 -2.24202538 13.47784615 C-2.25179073 11.58885299 -2.24769195 9.69980339 -2.24291992 7.81079102 C-2.24434494 6.73459 -2.24576996 5.65838898 -2.24723816 4.54957581 C-2 2 -2 2 0 0 Z " fill="#3A8EDC" transform="translate(154,104)"/>
<path d="M0 0 C4.55555556 0.55555556 4.55555556 0.55555556 6 2 C6.10434618 3.86090576 6.13854637 5.72578276 6.14526367 7.58959961 C6.15164352 8.78431381 6.15802338 9.97902802 6.16459656 11.20994568 C6.16570938 12.51093704 6.1668222 13.81192841 6.16796875 15.15234375 C6.17117976 16.49133846 6.17454371 17.83033282 6.17805481 19.16932678 C6.18405208 21.9796734 6.18589411 24.78998923 6.18530273 27.6003418 C6.18520109 31.2064636 6.19885245 34.81238858 6.21607494 38.41846371 C6.22717859 41.18507295 6.22922245 43.95163438 6.22869301 46.71826363 C6.2304519 48.69589314 6.24130352 50.67350774 6.25224304 52.65110779 C6.24916641 53.84897415 6.24608978 55.04684052 6.24291992 56.28100586 C6.24434494 57.33944199 6.24576996 58.39787811 6.24723816 59.48838806 C6 62 6 62 4 64 C1.4375 63.75 1.4375 63.75 -1 63 C-2.32323027 60.35353946 -2.13437702 58.35225664 -2.14526367 55.38867188 C-2.15164352 54.21405396 -2.15802338 53.03943604 -2.16459656 51.82922363 C-2.16570938 50.55526733 -2.1668222 49.28131104 -2.16796875 47.96875 C-2.17129715 46.66675659 -2.17462555 45.36476318 -2.17805481 44.02331543 C-2.18404563 41.26602347 -2.18589471 38.50876286 -2.18530273 35.75146484 C-2.185201 32.21375156 -2.19886516 28.67623847 -2.21607494 25.13857269 C-2.22984713 21.76946179 -2.22928302 18.40038873 -2.23046875 15.03125 C-2.23765427 13.7572937 -2.24483978 12.4833374 -2.25224304 11.17077637 C-2.24916641 9.99615845 -2.24608978 8.82154053 -2.24291992 7.61132812 C-2.24434494 6.5736731 -2.24576996 5.53601807 -2.24723816 4.46691895 C-2 2 -2 2 0 0 Z " fill="#558BBD" transform="translate(83,33)"/>
<path d="M0 0 C3 0.125 3 0.125 4 1.125 C4.09915795 3.02198849 4.12799314 4.92268787 4.12939453 6.82226562 C4.13254669 8.04022827 4.13569885 9.25819092 4.13894653 10.51306152 C4.13715675 11.85245805 4.1351058 13.19185424 4.1328125 14.53125 C4.1334856 15.8950604 4.13445567 17.25887068 4.13571167 18.62268066 C4.13718838 21.48430521 4.13503497 24.3458986 4.13037109 27.20751953 C4.12467381 30.88318614 4.12795296 34.55877974 4.13394356 38.23444366 C4.13754991 41.05162104 4.13641025 43.86878098 4.13381577 46.68595886 C4.1331467 48.04160063 4.13397421 49.39724396 4.13629532 50.75288391 C4.13882301 52.64450044 4.13429014 54.53612249 4.12939453 56.42773438 C4.12859894 57.50615601 4.12780334 58.58457764 4.12698364 59.69567871 C4 62.125 4 62.125 3 63.125 C0.5625 63.3125 0.5625 63.3125 -2 63.125 C-4 61.125 -4 61.125 -4.24723816 58.61338806 C-4.24581314 57.55495193 -4.24438812 56.49651581 -4.24291992 55.40600586 C-4.24599655 54.2081395 -4.24907318 53.01027313 -4.25224304 51.77610779 C-4.24505753 50.47714066 -4.23787201 49.17817352 -4.23046875 47.83984375 C-4.229277 46.49988347 -4.22882378 45.15992234 -4.2290802 43.81996155 C-4.22751528 41.01135023 -4.21922423 38.20286637 -4.20581055 35.39428711 C-4.18880427 31.7870208 -4.18499666 28.17989443 -4.18575573 24.57259274 C-4.18548436 21.80602167 -4.18000875 19.03948144 -4.17275429 16.27292061 C-4.16800773 14.29359946 -4.16628961 12.3142718 -4.16459656 10.33494568 C-4.15821671 9.14023148 -4.15183685 7.94551727 -4.14526367 6.71459961 C-4.14145187 5.65695908 -4.13764008 4.59931854 -4.13371277 3.5096283 C-3.93376605 -0.0562137 -3.6356561 0.15148567 0 0 Z " fill="#244574" transform="translate(44,103.875)"/>
<path d="M0 0 C2.5625 0.25 2.5625 0.25 5 1 C6.30896293 3.61792585 6.14144703 5.57191781 6.16113281 8.50366211 C6.17074036 9.65503159 6.1803479 10.80640106 6.19024658 11.99266052 C6.19449646 13.24160599 6.19874634 14.49055145 6.203125 15.77734375 C6.20882507 17.05476944 6.21452515 18.33219513 6.22039795 19.64833069 C6.22985795 22.35437588 6.23674984 25.06030988 6.24023438 27.76635742 C6.24572284 31.23455902 6.26975888 34.70236875 6.29820633 38.17044735 C6.32130165 41.47688329 6.32328009 44.78333842 6.328125 48.08984375 C6.3404718 49.33676498 6.3528186 50.58368622 6.36553955 51.86839294 C6.36253845 53.02291458 6.35953735 54.17743622 6.35644531 55.36694336 C6.36009094 56.38461288 6.36373657 57.40228241 6.36749268 58.45079041 C6 61 6 61 4.61053467 62.86769104 C3 64 3 64 0.875 63.75 C-1 63 -1 63 -2 62 C-2.10434618 60.13909424 -2.13854637 58.27421724 -2.14526367 56.41040039 C-2.15164352 55.21568619 -2.15802338 54.02097198 -2.16459656 52.79005432 C-2.16570938 51.48906296 -2.1668222 50.18807159 -2.16796875 48.84765625 C-2.17117976 47.50866154 -2.17454371 46.16966718 -2.17805481 44.83067322 C-2.18405208 42.0203266 -2.18589411 39.21001077 -2.18530273 36.3996582 C-2.18520109 32.7935364 -2.19885245 29.18761142 -2.21607494 25.58153629 C-2.22717859 22.81492705 -2.22922245 20.04836562 -2.22869301 17.28173637 C-2.2304519 15.30410686 -2.24130352 13.32649226 -2.25224304 11.34889221 C-2.24916641 10.15102585 -2.24608978 8.95315948 -2.24291992 7.71899414 C-2.24434494 6.66055801 -2.24576996 5.60212189 -2.24723816 4.51161194 C-2 2 -2 2 0 0 Z " fill="#6CB3CF" transform="translate(73,105)"/>
<path d="M0 0 C1.2684375 0.12375 1.2684375 0.12375 2.5625 0.25 C4.83680134 3.661452 4.81502522 4.87691264 4.82128906 8.88305664 C4.82759338 10.03757828 4.83389771 11.19209991 4.84039307 12.38160706 C4.8363446 13.62852829 4.83229614 14.87544952 4.828125 16.16015625 C4.83003845 17.43853867 4.8319519 18.71692108 4.83392334 20.03404236 C4.83528538 22.73840843 4.8325893 25.44241389 4.82324219 28.14672852 C4.81183629 31.61605609 4.81841656 35.08507462 4.83038712 38.55439091 C4.83934222 41.86049054 4.8330772 45.16655259 4.828125 48.47265625 C4.83217346 49.72160172 4.83622192 50.97054718 4.84039307 52.25733948 C4.83408875 53.40870895 4.82778442 54.56007843 4.82128906 55.74633789 C4.81890228 57.27164879 4.81890228 57.27164879 4.81646729 58.82777405 C4.5625 61.25 4.5625 61.25 2.5625 63.25 C0 63.4375 0 63.4375 -2.4375 63.25 C-4.20473811 61.48276189 -3.56512833 58.9468116 -3.56689453 56.55273438 C-3.57004669 55.33477173 -3.57319885 54.11680908 -3.57644653 52.86193848 C-3.57465675 51.52254195 -3.5726058 50.18314576 -3.5703125 48.84375 C-3.5709856 47.4799396 -3.57195567 46.11612932 -3.57321167 44.75231934 C-3.57468838 41.89069479 -3.57253497 39.0291014 -3.56787109 36.16748047 C-3.56217381 32.49181386 -3.56545296 28.81622026 -3.57144356 25.14055634 C-3.57504991 22.32337896 -3.57391025 19.50621902 -3.57131577 16.68904114 C-3.5706467 15.33339937 -3.57147421 13.97775604 -3.57379532 12.62211609 C-3.57632301 10.73049956 -3.57179014 8.83887751 -3.56689453 6.94726562 C-3.56609894 5.86884399 -3.56530334 4.79042236 -3.56448364 3.67932129 C-3.3929753 0.39819887 -3.26187518 0.3345513 0 0 Z " fill="#5EB1CE" transform="translate(115.4375,34.75)"/>
<path d="M0 0 C4.55555556 0.55555556 4.55555556 0.55555556 6 2 C6.0991056 3.86635788 6.12799261 5.73648194 6.12939453 7.60546875 C6.13254669 8.80341064 6.13569885 10.00135254 6.13894653 11.2355957 C6.1369223 12.53972412 6.13489807 13.84385254 6.1328125 15.1875 C6.1334856 16.52889015 6.13445568 17.87028019 6.13571167 19.21166992 C6.13718836 22.02621621 6.13503504 24.84073082 6.13037109 27.65527344 C6.12467381 31.27040631 6.12795297 34.88546495 6.13394356 38.50059509 C6.13754997 41.27144942 6.13641022 44.04228602 6.13381577 46.81314087 C6.13282033 48.79689583 6.13586741 50.78065147 6.13894653 52.7644043 C6.13579437 53.96234619 6.13264221 55.16028809 6.12939453 56.39453125 C6.12820114 57.98551636 6.12820114 57.98551636 6.12698364 59.60864258 C6 62 6 62 5 63 C2.5625 63.1875 2.5625 63.1875 0 63 C-2.65608754 60.34391246 -2.25310262 59.09695141 -2.25878906 55.38867188 C-2.26509338 54.21405396 -2.27139771 53.03943604 -2.27789307 51.82922363 C-2.2738446 50.55526733 -2.26979614 49.28131104 -2.265625 47.96875 C-2.26753845 46.66675659 -2.2694519 45.36476318 -2.27142334 44.02331543 C-2.27437391 41.26598372 -2.27007924 38.50878151 -2.26074219 35.75146484 C-2.24934753 32.21372927 -2.25590738 28.67629713 -2.26788712 25.13857269 C-2.27684394 21.76944066 -2.2705764 18.40039066 -2.265625 15.03125 C-2.26967346 13.7572937 -2.27372192 12.4833374 -2.27789307 11.17077637 C-2.27158875 9.99615845 -2.26528442 8.82154053 -2.25878906 7.61132812 C-2.25719788 6.5736731 -2.25560669 5.53601807 -2.25396729 4.46691895 C-2 2 -2 2 0 0 Z " fill="#62B0CC" transform="translate(123,104)"/>
<path d="M0 0 C3 -0.3125 3 -0.3125 6 0 C8 2 8 2 8.22273254 3.8215332 C8.20957504 4.55718506 8.19641754 5.29283691 8.18286133 6.05078125 C8.16712822 7.30217896 8.16712822 7.30217896 8.15107727 8.57885742 C8.12829208 9.48095947 8.1055069 10.38306152 8.08203125 11.3125 C8.06412033 12.23716064 8.04620941 13.16182129 8.02775574 14.11450195 C7.9865225 16.07156852 7.93993153 18.02852835 7.88842773 19.98535156 C7.81281342 22.98755607 7.7638229 25.98941557 7.71679688 28.9921875 C7.67349407 30.89066262 7.62862485 32.78910279 7.58203125 34.6875 C7.56936722 35.58960205 7.55670319 36.4917041 7.5436554 37.42114258 C7.51740585 38.25540771 7.49115631 39.08967285 7.46411133 39.94921875 C7.44697586 40.68487061 7.42984039 41.42052246 7.41218567 42.1784668 C7 44 7 44 4 46 C1.375 45.75 1.375 45.75 -1 45 C-2.67894952 41.64210095 -2.16316336 37.85315254 -2.16796875 34.16015625 C-2.17129715 33.28225937 -2.17462555 32.40436249 -2.17805481 31.49986267 C-2.18312218 29.64127121 -2.18546319 27.78267063 -2.18530273 25.92407227 C-2.18748849 23.07748453 -2.20564408 20.23128471 -2.22460938 17.38476562 C-2.22754345 15.5807305 -2.22952815 13.77669352 -2.23046875 11.97265625 C-2.24124702 10.69286644 -2.24124702 10.69286644 -2.25224304 9.38722229 C-2.2288279 3.34324185 -2.2288279 3.34324185 0 0 Z " fill="#8EC0D7" transform="translate(128,43)"/>
<path d="M0 0 C2.5625 0.1875 2.5625 0.1875 4.5625 2.1875 C4.82319641 4.00230408 4.82319641 4.00230408 4.8371582 6.22241211 C4.84669022 7.05344955 4.85622223 7.884487 4.86604309 8.7407074 C4.86513168 9.63967239 4.86422028 10.53863739 4.86328125 11.46484375 C4.86756638 12.38713272 4.8718515 13.30942169 4.87626648 14.25965881 C4.88201559 16.21240416 4.88250578 18.16517092 4.87817383 20.11791992 C4.87501627 23.10958335 4.8984573 26.10025599 4.92382812 29.09179688 C4.92610126 30.98697792 4.92680455 32.88216162 4.92578125 34.77734375 C4.934991 35.67428452 4.94420074 36.57122528 4.95368958 37.49534607 C4.94746078 38.32953568 4.94123199 39.16372528 4.93481445 40.02319336 C4.93544388 40.7566246 4.9360733 41.49005585 4.9367218 42.24571228 C4.45541043 44.74317368 3.56558868 45.6640907 1.5625 47.1875 C-0.57495922 46.93603421 -1.89675779 46.72824221 -3.4375 45.1875 C-3.53545311 43.81140118 -3.56548088 42.43036118 -3.56689453 41.05078125 C-3.57004669 40.17317139 -3.57319885 39.29556152 -3.57644653 38.39135742 C-3.5744223 37.43720947 -3.57239807 36.48306152 -3.5703125 35.5 C-3.57126923 34.52716064 -3.57222595 33.55432129 -3.57321167 32.55200195 C-3.57389358 30.490722 -3.57203853 28.42943992 -3.56787109 26.36816406 C-3.562523 23.20112312 -3.56781572 20.034224 -3.57421875 16.8671875 C-3.57355797 14.86979135 -3.57227681 12.87239529 -3.5703125 10.875 C-3.57233673 9.92085205 -3.57436096 8.9667041 -3.57644653 7.98364258 C-3.57329437 7.10603271 -3.57014221 6.22842285 -3.56689453 5.32421875 C-3.56609894 4.54780029 -3.56530334 3.77138184 -3.56448364 2.97143555 C-3.36378898 0.1519673 -2.8208869 0.2169913 0 0 Z " fill="#6AA8C2" transform="translate(170.4375,112.8125)"/>
<path d="M0 0 C2.5625 0.1875 2.5625 0.1875 4.5625 2.1875 C4.82319641 4.04699707 4.82319641 4.04699707 4.8371582 6.33007812 C4.84669022 7.18436401 4.85622223 8.0386499 4.86604309 8.91882324 C4.86513168 9.84279907 4.86422028 10.7667749 4.86328125 11.71875 C4.86756638 12.66560669 4.8718515 13.61246338 4.87626648 14.5880127 C4.88201531 16.59203287 4.88250599 18.59607392 4.87817383 20.60009766 C4.87501268 23.67516452 4.89847027 26.74927087 4.92382812 29.82421875 C4.92610085 31.76822795 4.92680474 33.71223974 4.92578125 35.65625 C4.934991 36.58022583 4.94420074 37.50420166 4.95368958 38.45617676 C4.94746078 39.31046265 4.94123199 40.16474854 4.93481445 41.04492188 C4.93544388 41.79833862 4.9360733 42.55175537 4.9367218 43.32800293 C4.5625 45.1875 4.5625 45.1875 1.5625 47.1875 C-0.90478516 46.29150391 -0.90478516 46.29150391 -3.4375 44.1875 C-4.19143586 40.98020511 -4.04157383 37.80287529 -3.9609375 34.5234375 C-3.95623444 33.57562408 -3.95153137 32.62781067 -3.94668579 31.65127563 C-3.92531184 28.62094861 -3.86866187 25.59236108 -3.8125 22.5625 C-3.79599817 20.51303722 -3.78164874 18.46355589 -3.76953125 16.4140625 C-3.73552162 12.67604628 -3.70090702 8.93820323 -3.63037109 5.20068359 C-3.61751068 4.44806244 -3.60465027 3.69544128 -3.59140015 2.92001343 C-3.34468486 0.14264413 -2.78564175 0.21428013 0 0 Z " fill="#76BBD6" transform="translate(110.4375,112.8125)"/>
<path d="M0 0 C4.55555556 0.55555556 4.55555556 0.55555556 6 2 C6.11360293 5.07911659 6.16419105 8.13495466 6.16796875 11.21484375 C6.17129715 12.14091934 6.17462555 13.06699493 6.17805481 14.02113342 C6.18312808 15.98405458 6.18546301 17.9469844 6.18530273 19.90991211 C6.18748817 22.92120511 6.20563674 25.93213134 6.22460938 28.94335938 C6.22754336 30.84635291 6.22952812 32.74934819 6.23046875 34.65234375 C6.23765427 35.55758286 6.24483978 36.46282196 6.25224304 37.39549255 C6.24916641 38.23298538 6.24608978 39.07047821 6.24291992 39.93334961 C6.24434494 40.67201767 6.24576996 41.41068573 6.24723816 42.17173767 C6 44 6 44 4 46 C-0.55555556 45.44444444 -0.55555556 45.44444444 -2 44 C-2.11360293 40.92088341 -2.16419105 37.86504534 -2.16796875 34.78515625 C-2.17129715 33.85908066 -2.17462555 32.93300507 -2.17805481 31.97886658 C-2.18312808 30.01594542 -2.18546301 28.0530156 -2.18530273 26.09008789 C-2.18748817 23.07879489 -2.20563674 20.06786866 -2.22460938 17.05664062 C-2.22754336 15.15364709 -2.22952812 13.25065181 -2.23046875 11.34765625 C-2.23765427 10.44241714 -2.24483978 9.53717804 -2.25224304 8.60450745 C-2.24916641 7.76701462 -2.24608978 6.92952179 -2.24291992 6.06665039 C-2.24434494 5.32798233 -2.24576996 4.58931427 -2.24723816 3.82826233 C-2 2 -2 2 0 0 Z " fill="#1D406D" transform="translate(27,112)"/>
<path d="M0 0 C2.4375 0.1875 2.4375 0.1875 3.4375 1.1875 C3.54051414 2.52743616 3.57598453 3.87267965 3.58276367 5.21655273 C3.59233345 6.49809486 3.59233345 6.49809486 3.60209656 7.80552673 C3.60320938 8.73466385 3.6043222 9.66380096 3.60546875 10.62109375 C3.60879715 11.56936539 3.61212555 12.51763702 3.61555481 13.49464417 C3.62062819 15.50464389 3.62296301 17.51465208 3.62280273 19.5246582 C3.62498822 22.60837619 3.64313683 25.69173606 3.66210938 28.77539062 C3.66504334 30.7239571 3.66702812 32.67252529 3.66796875 34.62109375 C3.67515427 35.54820663 3.68233978 36.47531952 3.68974304 37.43052673 C3.68666641 38.28804031 3.68358978 39.14555389 3.68041992 40.02905273 C3.68184494 40.78548569 3.68326996 41.54191864 3.68473816 42.3212738 C3.4375 44.1875 3.4375 44.1875 1.4375 46.1875 C-1.49703261 45.82068342 -2.42687246 45.32312754 -4.5625 43.1875 C-4.76264153 40.12571227 -4.84221072 37.15630708 -4.828125 34.09375 C-4.83003845 33.1912854 -4.8319519 32.2888208 -4.83392334 31.35900879 C-4.83528559 29.44913454 -4.83158638 27.53925104 -4.82324219 25.62939453 C-4.81254321 22.6993335 -4.82313611 19.76988562 -4.8359375 16.83984375 C-4.83461591 14.98697781 -4.83205353 13.13411225 -4.828125 11.28125 C-4.83217346 10.40102173 -4.83622192 9.52079346 -4.84039307 8.6138916 C-4.77640561 0.34949309 -4.77640561 0.34949309 0 0 Z " fill="#67B4CD" transform="translate(89.5625,113.8125)"/>
<path d="M0 0 C4.55555556 0.55555556 4.55555556 0.55555556 6 2 C6.11360293 5.07911659 6.16419105 8.13495466 6.16796875 11.21484375 C6.17129715 12.14091934 6.17462555 13.06699493 6.17805481 14.02113342 C6.18312808 15.98405458 6.18546301 17.9469844 6.18530273 19.90991211 C6.18748817 22.92120511 6.20563674 25.93213134 6.22460938 28.94335938 C6.22754336 30.84635291 6.22952812 32.74934819 6.23046875 34.65234375 C6.23765427 35.55758286 6.24483978 36.46282196 6.25224304 37.39549255 C6.24916641 38.23298538 6.24608978 39.07047821 6.24291992 39.93334961 C6.24434494 40.67201767 6.24576996 41.41068573 6.24723816 42.17173767 C6 44 6 44 4 46 C1.4375 45.75 1.4375 45.75 -1 45 C-2.70949338 41.58101325 -2.16321249 37.66838387 -2.16796875 33.90625 C-2.17129715 33.0037854 -2.17462555 32.1013208 -2.17805481 31.17150879 C-2.18312194 29.26164256 -2.1854632 27.35176747 -2.18530273 25.44189453 C-2.18749111 22.51189699 -2.20565418 19.58227472 -2.22460938 16.65234375 C-2.22754289 14.79948046 -2.22952797 12.94661537 -2.23046875 11.09375 C-2.23765427 10.21352173 -2.24483978 9.33329346 -2.25224304 8.4263916 C-2.22882548 2.22882548 -2.22882548 2.22882548 0 0 Z " fill="#5FABC8" transform="translate(68,42)"/>
<path d="M0 0 C1.98 0 3.96 0 6 0 C8.14181645 2.14181645 7.16423544 7.02577926 7.16796875 9.99609375 C7.17129715 10.8999733 7.17462555 11.80385284 7.17805481 12.73512268 C7.18312796 14.65096527 7.18546302 16.56681672 7.18530273 18.48266602 C7.18748813 21.42153418 7.20563665 24.36002652 7.22460938 27.29882812 C7.22754337 29.15624871 7.22952813 31.01367109 7.23046875 32.87109375 C7.23765427 33.75445908 7.24483978 34.6378244 7.25224304 35.54795837 C7.22882139 41.77117861 7.22882139 41.77117861 5 44 C3.35 43.67 1.7 43.34 0 43 C0 28.81 0 14.62 0 0 Z " fill="#1C3F6E" transform="translate(137,115)"/>
<path d="M0 0 C2.5 0.125 2.5 0.125 3.5 1.125 C3.58783542 3.34355264 3.60694609 5.56488496 3.59765625 7.78515625 C3.5962413 8.44962265 3.59482635 9.11408905 3.59336853 9.7986908 C3.58775518 11.92833899 3.57520054 14.05788339 3.5625 16.1875 C3.55748671 17.62825369 3.55292351 19.06900903 3.54882812 20.50976562 C3.53778145 24.04821102 3.52050792 27.58659539 3.5 31.125 C-1.25 32.25 -1.25 32.25 -3.5 31.125 C-3.52465622 26.87085377 -3.54283899 22.61674502 -3.55493164 18.36254883 C-3.55997101 16.91429927 -3.56680253 15.46605483 -3.57543945 14.01782227 C-3.58752247 11.94025412 -3.59323211 9.86275303 -3.59765625 7.78515625 C-3.60289307 6.53355713 -3.60812988 5.28195801 -3.61352539 3.99243164 C-3.46231365 0.17311568 -3.46231365 0.17311568 0 0 Z " fill="#1C3E6D" transform="translate(115.5,48.875)"/>
<path d="M0 0 C4.70588235 0.70588235 4.70588235 0.70588235 6 2 C6.2541555 6.64015325 6.18522798 11.29121306 6.1875 15.9375 C6.19974609 17.25169922 6.21199219 18.56589844 6.22460938 19.91992188 C6.22654297 21.17224609 6.22847656 22.42457031 6.23046875 23.71484375 C6.23457764 24.87105225 6.23868652 26.02726074 6.24291992 27.21850586 C6 30 6 30 4 32 C1.375 32.125 1.375 32.125 -1 32 C-1.02465504 27.60343827 -1.04283842 23.2069128 -1.05493164 18.81030273 C-1.05997121 17.31355082 -1.06680287 15.81680384 -1.07543945 14.32006836 C-1.08752159 12.17300193 -1.09323191 10.02600038 -1.09765625 7.87890625 C-1.10289307 6.5854126 -1.10812988 5.29191895 -1.11352539 3.95922852 C-1 1 -1 1 0 0 Z " fill="#1C406E" transform="translate(83,47)"/>
<path d="M0 0 C2.97 0.495 2.97 0.495 6 1 C6 10.9 6 20.8 6 31 C4.35 31.33 2.7 31.66 1 32 C-1 30 -1 30 -1.24291992 27.234375 C-1.23881104 26.08453125 -1.23470215 24.9346875 -1.23046875 23.75 C-1.22853516 22.5021875 -1.22660156 21.254375 -1.22460938 19.96875 C-1.21236328 18.6590625 -1.20011719 17.349375 -1.1875 16 C-1.18685547 14.6903125 -1.18621094 13.380625 -1.18554688 12.03125 C-1.14021767 2.28043535 -1.14021767 2.28043535 0 0 Z " fill="#1C3F6D" transform="translate(72,119)"/>
<path d="M0 0 C4.70588235 0.70588235 4.70588235 0.70588235 6 2 C6.2541555 6.64015325 6.18522798 11.29121306 6.1875 15.9375 C6.19974609 17.25169922 6.21199219 18.56589844 6.22460938 19.91992188 C6.22654297 21.17224609 6.22847656 22.42457031 6.23046875 23.71484375 C6.23457764 24.87105225 6.23868652 26.02726074 6.24291992 27.21850586 C6 30 6 30 4 32 C1.375 31.625 1.375 31.625 -1 31 C-1.02465622 26.74585377 -1.04283899 22.49174502 -1.05493164 18.23754883 C-1.05997101 16.78929927 -1.06680253 15.34105483 -1.07543945 13.89282227 C-1.08752247 11.81525412 -1.09323211 9.73775303 -1.09765625 7.66015625 C-1.10289307 6.40855713 -1.10812988 5.15695801 -1.11352539 3.86743164 C-1 1 -1 1 0 0 Z " fill="#1B3F6E" transform="translate(123,118)"/>
<path d="M0 0 C1.98 0 3.96 0 6 0 C6 9.9 6 19.8 6 30 C4.35 30.33 2.7 30.66 1 31 C-1 29 -1 29 -1.24291992 26.21850586 C-1.23675659 24.48419312 -1.23675659 24.48419312 -1.23046875 22.71484375 C-1.22853516 21.46251953 -1.22660156 20.21019531 -1.22460938 18.91992188 C-1.21236328 17.60572266 -1.20011719 16.29152344 -1.1875 14.9375 C-1.18685547 13.61943359 -1.18621094 12.30136719 -1.18554688 10.94335938 C-1.14009123 1.14009123 -1.14009123 1.14009123 0 0 Z " fill="#1A4070" transform="translate(153,120)"/>
<path d="M0 0 C2.5 0.125 2.5 0.125 3.5 1.125 C3.59899523 2.67455559 3.63079524 4.22853673 3.6328125 5.78125 C3.63410156 6.72097656 3.63539062 7.66070312 3.63671875 8.62890625 C3.63285156 9.61761719 3.62898438 10.60632813 3.625 11.625 C3.62886719 12.61371094 3.63273437 13.60242188 3.63671875 14.62109375 C3.63542969 15.56082031 3.63414063 16.50054687 3.6328125 17.46875 C3.63168457 18.33693359 3.63055664 19.20511719 3.62939453 20.09960938 C3.5 22.125 3.5 22.125 2.5 23.125 C0 23.25 0 23.25 -2.5 23.125 C-4.12200515 21.50299485 -3.6299075 19.70476969 -3.6328125 17.46875 C-3.63410156 16.52902344 -3.63539062 15.58929688 -3.63671875 14.62109375 C-3.63285156 13.63238281 -3.62898438 12.64367187 -3.625 11.625 C-3.62886719 10.63628906 -3.63273437 9.64757812 -3.63671875 8.62890625 C-3.63542969 7.68917969 -3.63414063 6.74945313 -3.6328125 5.78125 C-3.63168457 4.91306641 -3.63055664 4.04488281 -3.62939453 3.15039062 C-3.43571596 0.11877282 -3.05153971 0.15257699 0 0 Z " fill="#1B406E" transform="translate(110.5,124.875)"/>
<path d="M0 0 C2.5 0.125 2.5 0.125 3.5 1.125 C3.59899523 2.67455559 3.63079524 4.22853673 3.6328125 5.78125 C3.63410156 6.72097656 3.63539063 7.66070312 3.63671875 8.62890625 C3.63285156 9.61761719 3.62898437 10.60632813 3.625 11.625 C3.62886719 12.61371094 3.63273438 13.60242188 3.63671875 14.62109375 C3.63542969 15.56082031 3.63414062 16.50054687 3.6328125 17.46875 C3.63168457 18.33693359 3.63055664 19.20511719 3.62939453 20.09960938 C3.5 22.125 3.5 22.125 2.5 23.125 C0 23.25 0 23.25 -2.5 23.125 C-4.12200515 21.50299485 -3.6299075 19.70476969 -3.6328125 17.46875 C-3.63410156 16.52902344 -3.63539062 15.58929688 -3.63671875 14.62109375 C-3.63285156 13.63238281 -3.62898438 12.64367187 -3.625 11.625 C-3.62886719 10.63628906 -3.63273437 9.64757812 -3.63671875 8.62890625 C-3.63542969 7.68917969 -3.63414063 6.74945313 -3.6328125 5.78125 C-3.63168457 4.91306641 -3.63055664 4.04488281 -3.62939453 3.15039062 C-3.43571596 0.11877282 -3.05153971 0.15257699 0 0 Z " fill="#1C3D6B" transform="translate(130.5,55.875)"/>
<path d="M0 0 C1.875 0.6875 1.875 0.6875 2.875 1.6875 C2.96151611 3.10320123 2.98204904 4.523095 2.97265625 5.94140625 C2.96943359 6.79541016 2.96621094 7.64941406 2.96289062 8.52929688 C2.95451172 9.42712891 2.94613281 10.32496094 2.9375 11.25 C2.93298828 12.15169922 2.92847656 13.05339844 2.92382812 13.98242188 C2.91200225 16.21751314 2.8955222 18.45247437 2.875 20.6875 C0.565 20.3575 -1.745 20.0275 -4.125 19.6875 C-4.455 20.3475 -4.785 21.0075 -5.125 21.6875 C-5.21185287 18.39599875 -5.26533895 15.1047904 -5.3125 11.8125 C-5.33763672 10.87535156 -5.36277344 9.93820313 -5.38867188 8.97265625 C-5.39833984 8.07675781 -5.40800781 7.18085937 -5.41796875 6.2578125 C-5.4336792 5.43039551 -5.44938965 4.60297852 -5.46557617 3.75048828 C-5.35318604 3.06970215 -5.2407959 2.38891602 -5.125 1.6875 C-2.125 -0.3125 -2.125 -0.3125 0 0 Z " fill="#4AB2CF" transform="translate(141.125,95.3125)"/>
<path d="M0 0 C2.5 0.125 2.5 0.125 3.5 1.125 C3.58685603 2.68672745 3.60702219 4.25229344 3.59765625 5.81640625 C3.59443359 6.76064453 3.59121094 7.70488281 3.58789062 8.67773438 C3.57951172 9.67095703 3.57113281 10.66417969 3.5625 11.6875 C3.55798828 12.68458984 3.55347656 13.68167969 3.54882812 14.70898438 C3.53700007 17.18104849 3.52051849 19.65299518 3.5 22.125 C1.125 22.75 1.125 22.75 -1.5 23.125 C-3.5 21.125 -3.5 21.125 -3.74291992 19.07788086 C-3.73881104 18.25682861 -3.73470215 17.43577637 -3.73046875 16.58984375 C-3.72853516 15.69845703 -3.72660156 14.80707031 -3.72460938 13.88867188 C-3.71236328 12.95603516 -3.70011719 12.02339844 -3.6875 11.0625 C-3.68685547 10.12599609 -3.68621094 9.18949219 -3.68554688 8.22460938 C-3.63313082 0.18165654 -3.63313082 0.18165654 0 0 Z " fill="#1B3F6D" transform="translate(170.5,126.875)"/>
<path d="M0 0 C4.55555556 0.55555556 4.55555556 0.55555556 6 2 C6.08669432 3.4887186 6.10703494 4.981445 6.09765625 6.47265625 C6.09443359 7.37177734 6.09121094 8.27089844 6.08789062 9.19726562 C6.07951172 10.14279297 6.07113281 11.08832031 6.0625 12.0625 C6.05798828 13.01189453 6.05347656 13.96128906 6.04882812 14.93945312 C6.0370011 17.29303065 6.02052025 19.64648477 6 22 C5.67 21.34 5.34 20.68 5 20 C2.69 20.33 0.38 20.66 -2 21 C-2.05791844 17.87507749 -2.09356746 14.75029234 -2.125 11.625 C-2.14175781 10.73554687 -2.15851562 9.84609375 -2.17578125 8.9296875 C-2.18222656 8.07890625 -2.18867187 7.228125 -2.1953125 6.3515625 C-2.20578613 5.56604004 -2.21625977 4.78051758 -2.22705078 3.97119141 C-2 2 -2 2 0 0 Z " fill="#57AFC9" transform="translate(57,95)"/>
<path d="M0 0 C2.00720923 0.28674418 4.0085944 0.61866701 6 1 C6.05790353 4.29159316 6.09356261 7.58305603 6.125 10.875 C6.14175781 11.81214844 6.15851563 12.74929687 6.17578125 13.71484375 C6.18222656 14.61074219 6.18867187 15.50664063 6.1953125 16.4296875 C6.20578613 17.25710449 6.21625977 18.08452148 6.22705078 18.93701172 C6 21 6 21 4 23 C1.375 22.625 1.375 22.625 -1 22 C-1.02887814 18.52085059 -1.04675687 15.04173169 -1.0625 11.5625 C-1.07087891 10.56927734 -1.07925781 9.57605469 -1.08789062 8.55273438 C-1.09111328 7.60849609 -1.09433594 6.66425781 -1.09765625 5.69140625 C-1.10289307 4.81685791 -1.10812988 3.94230957 -1.11352539 3.04125977 C-1 1 -1 1 0 0 Z " fill="#1B3F6E" transform="translate(68,55)"/>
<path d="M0 0 C1.98 0 3.96 0 6 0 C7.17426264 2.34852528 7.11508173 3.73774065 7.09765625 6.3515625 C7.09443359 7.20234375 7.09121094 8.053125 7.08789062 8.9296875 C7.07951172 9.81914063 7.07113281 10.70859375 7.0625 11.625 C7.05798828 12.5221875 7.05347656 13.419375 7.04882812 14.34375 C7.03702591 16.56256648 7.02056155 18.78125018 7 21 C6.05125 20.814375 5.1025 20.62875 4.125 20.4375 C1.10131207 19.71313368 1.10131207 19.71313368 -1 21 C-1.02895976 17.87501937 -1.04678483 14.7500731 -1.0625 11.625 C-1.07087891 10.73554687 -1.07925781 9.84609375 -1.08789062 8.9296875 C-1.09111328 8.07890625 -1.09433594 7.228125 -1.09765625 6.3515625 C-1.10289307 5.56604004 -1.10812988 4.78051758 -1.11352539 3.97119141 C-1 2 -1 2 0 0 Z " fill="#51B2CA" transform="translate(97,25)"/>
<path d="M0 0 C3.53571429 0.53571429 3.53571429 0.53571429 5 2 C5.08669432 3.4887186 5.10703494 4.981445 5.09765625 6.47265625 C5.09443359 7.37177734 5.09121094 8.27089844 5.08789062 9.19726562 C5.07951172 10.14279297 5.07113281 11.08832031 5.0625 12.0625 C5.05798828 13.01189453 5.05347656 13.96128906 5.04882812 14.93945312 C5.0370011 17.29303065 5.02052025 19.64648477 5 22 C0.25 23.125 0.25 23.125 -2 22 C-2.05790353 18.70840684 -2.09356261 15.41694397 -2.125 12.125 C-2.14175781 11.18785156 -2.15851563 10.25070313 -2.17578125 9.28515625 C-2.18544922 7.94130859 -2.18544922 7.94130859 -2.1953125 6.5703125 C-2.20578613 5.74289551 -2.21625977 4.91547852 -2.22705078 4.06298828 C-2 2 -2 2 0 0 Z " fill="#1B3F6D" transform="translate(88,126)"/>
<path d="M0 0 C0.33 0.66 0.66 1.32 1 2 C4.62885324 2.15149298 4.62885324 2.15149298 8 1 C8.02683987 3.97922593 8.04676037 6.95821295 8.0625 9.9375 C8.07087891 10.78763672 8.07925781 11.63777344 8.08789062 12.51367188 C8.09111328 13.32255859 8.09433594 14.13144531 8.09765625 14.96484375 C8.10289307 15.7137085 8.10812988 16.46257324 8.11352539 17.23413086 C8 19 8 19 7 20 C4.5625 20.1875 4.5625 20.1875 2 20 C0 18 0 18 -0.22705078 16.12060547 C-0.21657715 15.37697754 -0.20610352 14.63334961 -0.1953125 13.8671875 C-0.18886719 13.06152344 -0.18242188 12.25585938 -0.17578125 11.42578125 C-0.15064453 10.16314453 -0.15064453 10.16314453 -0.125 8.875 C-0.11597656 8.02550781 -0.10695312 7.17601562 -0.09765625 6.30078125 C-0.07405647 4.20040116 -0.03818483 2.10016556 0 0 Z " fill="#4692D7" transform="translate(40,147)"/>
<path d="M0 0 C1.423125 0.2784375 1.423125 0.2784375 2.875 0.5625 C5.89868793 1.28686632 5.89868793 1.28686632 8 0 C8.05382106 2.62527189 8.09358313 5.24944713 8.125 7.875 C8.14175781 8.62136719 8.15851563 9.36773437 8.17578125 10.13671875 C8.1933959 12.09194461 8.10320189 14.04742021 8 16 C7.34 16.66 6.68 17.32 6 18 C1.44444444 17.44444444 1.44444444 17.44444444 0 16 C-0.07319621 13.30345146 -0.09242537 10.63308542 -0.0625 7.9375 C-0.05798828 7.17888672 -0.05347656 6.42027344 -0.04882812 5.63867188 C-0.0370068 3.75908129 -0.01907078 1.87953101 0 0 Z " fill="#4895D8" transform="translate(96,87)"/>
<path d="M0 0 C2.31 0.66 4.62 1.32 7 2 C7.33 1.34 7.66 0.68 8 0 C8.05382106 2.62527189 8.09358313 5.24944713 8.125 7.875 C8.14175781 8.62136719 8.15851562 9.36773437 8.17578125 10.13671875 C8.1933959 12.09194461 8.10320189 14.04742021 8 16 C7.34 16.66 6.68 17.32 6 18 C1.44444444 17.44444444 1.44444444 17.44444444 0 16 C-0.07319621 13.30345146 -0.09242537 10.63308542 -0.0625 7.9375 C-0.05798828 7.17888672 -0.05347656 6.42027344 -0.04882812 5.63867188 C-0.0370068 3.75908129 -0.01907078 1.87953101 0 0 Z " fill="#5390CA" transform="translate(55,157)"/>
<path d="M0 0 C2.31 0.33 4.62 0.66 7 1 C7.05380578 3.79192205 7.09357669 6.5828141 7.125 9.375 C7.15013672 10.56609375 7.15013672 10.56609375 7.17578125 11.78125 C7.19335473 13.85492015 7.10335168 15.92883241 7 18 C6.34 18.66 5.68 19.32 5 20 C1.46428571 19.46428571 1.46428571 19.46428571 0 18 C-0.08631874 16.65732587 -0.10706473 15.31025678 -0.09765625 13.96484375 C-0.09443359 13.15595703 -0.09121094 12.34707031 -0.08789062 11.51367188 C-0.07951172 10.66353516 -0.07113281 9.81339844 -0.0625 8.9375 C-0.05798828 8.08349609 -0.05347656 7.22949219 -0.04882812 6.34960938 C-0.03700373 4.23304337 -0.01906769 2.11651315 0 0 Z " fill="#3890DE" transform="translate(71,149)"/>
<path d="M0 0 C4.55555556 0.55555556 4.55555556 0.55555556 6 2 C6.07313567 4.53049402 6.09247527 7.03304837 6.0625 9.5625 C6.05798828 10.27341797 6.05347656 10.98433594 6.04882812 11.71679688 C6.03700864 13.47790013 6.01907263 15.23896036 6 17 C3.36 17 0.72 17 -2 17 C-2.05383848 14.54137599 -2.09359038 12.0839245 -2.125 9.625 C-2.14175781 8.92632812 -2.15851563 8.22765625 -2.17578125 7.5078125 C-2.19344267 5.67102514 -2.10303261 3.83398037 -2 2 C-1.34 1.34 -0.68 0.68 0 0 Z " fill="#46B1CD" transform="translate(154,104)"/>
<path d="M0 0 C0.33 0 0.66 0 1 0 C1.02683987 2.97922593 1.04676037 5.95821295 1.0625 8.9375 C1.07087891 9.78763672 1.07925781 10.63777344 1.08789062 11.51367188 C1.09111328 12.32255859 1.09433594 13.13144531 1.09765625 13.96484375 C1.10289307 14.7137085 1.10812988 15.46257324 1.11352539 16.23413086 C1 18 1 18 0 19 C-2.5 19.125 -2.5 19.125 -5 19 C-6 18 -6 18 -6.09765625 14.18359375 C-6.09098089 12.60153318 -6.07901875 11.01948841 -6.0625 9.4375 C-6.05798828 8.63119141 -6.05347656 7.82488281 -6.04882812 6.99414062 C-6.03700518 4.99606244 -6.01906914 2.99802217 -6 1 C-4.7934375 1.0309375 -4.7934375 1.0309375 -3.5625 1.0625 C-1.06645115 1.29633621 -1.06645115 1.29633621 0 0 Z " fill="#3990DE" transform="translate(128,148)"/>
<path d="M0 0 C2.31 0 4.62 0 7 0 C7.02684312 2.81256281 7.04676188 5.62487241 7.0625 8.4375 C7.07087891 9.23994141 7.07925781 10.04238281 7.08789062 10.86914062 C7.0965143 12.91295221 7.0522815 14.95683902 7 17 C6 18 6 18 3.5 18.125 C1 18 1 18 0 17 C-0.07325168 14.13732433 -0.09238205 11.299281 -0.0625 8.4375 C-0.05798828 7.63119141 -0.05347656 6.82488281 -0.04882812 5.99414062 C-0.03700518 3.99606244 -0.01906914 1.99802217 0 0 Z " fill="#3F8ED6" transform="translate(112,80)"/>
<path d="M0 0 C3 0.125 3 0.125 4 1.125 C4.07313567 3.65549402 4.09247527 6.15804837 4.0625 8.6875 C4.05798828 9.39841797 4.05347656 10.10933594 4.04882812 10.84179688 C4.03700864 12.60290013 4.01907263 14.36396036 4 16.125 C3.05125 15.939375 2.1025 15.75375 1.125 15.5625 C-1.89868793 14.83813368 -1.89868793 14.83813368 -4 16.125 C-4.02685095 13.64576199 -4.04676547 11.1668116 -4.0625 8.6875 C-4.07506836 7.62692383 -4.07506836 7.62692383 -4.08789062 6.54492188 C-4.09653588 4.73806441 -4.05220011 2.93112397 -4 1.125 C-3 0.125 -3 0.125 0 0 Z " fill="#56B2CA" transform="translate(44,103.875)"/>
<path d="M0 0 C4.55555556 0.55555556 4.55555556 0.55555556 6 2 C6.07271741 4.35313555 6.08370868 6.70833668 6.0625 9.0625 C6.05347656 10.35285156 6.04445313 11.64320312 6.03515625 12.97265625 C6.02355469 13.97167969 6.01195313 14.97070312 6 16 C5.05125 15.79375 4.1025 15.5875 3.125 15.375 C2.09375 15.25125 1.0625 15.1275 0 15 C-0.66 15.66 -1.32 16.32 -2 17 C-2.05383848 14.54137599 -2.09359038 12.0839245 -2.125 9.625 C-2.14175781 8.92632812 -2.15851563 8.22765625 -2.17578125 7.5078125 C-2.19344267 5.67102514 -2.10303261 3.83398037 -2 2 C-1.34 1.34 -0.68 0.68 0 0 Z " fill="#42AFCB" transform="translate(83,33)"/>
<path d="M0 0 C4.55555556 0.55555556 4.55555556 0.55555556 6 2 C6.07258946 4.18639453 6.08373783 6.37500389 6.0625 8.5625 C6.05347656 9.76003906 6.04445313 10.95757812 6.03515625 12.19140625 C6.02355469 13.11824219 6.01195312 14.04507813 6 15 C5.05125 14.814375 4.1025 14.62875 3.125 14.4375 C0.10131207 13.71313368 0.10131207 13.71313368 -2 15 C-2.05386629 12.87527424 -2.09273071 10.75016348 -2.125 8.625 C-2.14820312 7.44164063 -2.17140625 6.25828125 -2.1953125 5.0390625 C-2 2 -2 2 0 0 Z " fill="#59B0C5" transform="translate(27,112)"/>
<path d="M0 0 C0.33 0 0.66 0 1 0 C1.0505939 6.51445205 1.08568856 13.02885368 1.10986328 19.54345703 C1.11993825 21.76092421 1.13359859 23.97837805 1.15087891 26.19580078 C1.17506163 29.37796312 1.18646797 32.55995024 1.1953125 35.7421875 C1.20563507 36.73805878 1.21595764 37.73393005 1.22659302 38.75997925 C1.22674408 39.68078278 1.22689514 40.6015863 1.22705078 41.55029297 C1.231492 42.3630368 1.23593323 43.17578064 1.24050903 44.01315308 C1 46 1 46 -1 48 C-5.55555556 47.44444444 -5.55555556 47.44444444 -7 46 C-7.08631874 44.65732587 -7.10706473 43.31025678 -7.09765625 41.96484375 C-7.09443359 41.15595703 -7.09121094 40.34707031 -7.08789062 39.51367188 C-7.07951172 38.66353516 -7.07113281 37.81339844 -7.0625 36.9375 C-7.05798828 36.08349609 -7.05347656 35.22949219 -7.04882812 34.34960938 C-7.03700373 32.23304337 -7.01906769 30.11651315 -7 28 C-6.34 28.66 -5.68 29.32 -5 30 C-5.01747888 32.59269983 -5.13768592 35.0525154 -5.375 37.625 C-5.43171875 38.33140625 -5.4884375 39.0378125 -5.546875 39.765625 C-5.68840921 41.51121361 -5.84297387 43.25573673 -6 45 C-4.02 45 -2.04 45 0 45 C0 30.15 0 15.3 0 0 Z " fill="#5988B9" transform="translate(159,121)"/>
<path d="M0 0 C0.33 0.66 0.66 1.32 1 2 C2.98 2 4.96 2 7 2 C7.33 1.34 7.66 0.68 8 0 C8.05395478 1.62463842 8.09277195 3.24978541 8.125 4.875 C8.14820313 5.77992188 8.17140625 6.68484375 8.1953125 7.6171875 C8 10 8 10 6 12 C1.44444444 11.44444444 1.44444444 11.44444444 0 10 C-0.07205511 8.31391034 -0.08386068 6.62499341 -0.0625 4.9375 C-0.05347656 4.01839844 -0.04445313 3.09929687 -0.03515625 2.15234375 C-0.02355469 1.44207031 -0.01195313 0.73179687 0 0 Z " fill="#548FC7" transform="translate(25,146)"/>
<path d="M0 0 C1.65 0.33 3.3 0.66 5 1 C5 5.62 5 10.24 5 15 C3.02 15 1.04 15 -1 15 C-1.09038099 9.84828377 -0.84681133 5.08086796 0 0 Z " fill="#3AADD0" transform="translate(98,30)"/>
<path d="M0 0 C2.31 0 4.62 0 7 0 C7.05395478 1.62463842 7.09277195 3.24978541 7.125 4.875 C7.14820312 5.77992188 7.17140625 6.68484375 7.1953125 7.6171875 C7 10 7 10 5 12 C1.46428571 11.46428571 1.46428571 11.46428571 0 10 C-0.07205511 8.31391034 -0.08386068 6.62499341 -0.0625 4.9375 C-0.05347656 4.01839844 -0.04445313 3.09929687 -0.03515625 2.15234375 C-0.02355469 1.44207031 -0.01195313 0.73179687 0 0 Z " fill="#418CD1" transform="translate(86,148)"/>
<path d="M0 0 C2.31 0 4.62 0 7 0 C7.02688151 1.64574566 7.04634123 3.29161413 7.0625 4.9375 C7.07410156 5.85402344 7.08570312 6.77054688 7.09765625 7.71484375 C7 10 7 10 6 11 C3.5 11.125 3.5 11.125 1 11 C0 10 0 10 -0.09765625 7.71484375 C-0.08605469 6.79832031 -0.07445313 5.88179687 -0.0625 4.9375 C-0.05347656 4.01839844 -0.04445313 3.09929687 -0.03515625 2.15234375 C-0.02355469 1.44207031 -0.01195313 0.73179687 0 0 Z " fill="#418CD3" transform="translate(107,147)"/>
<path d="M0 0 C0.33 0 0.66 0 1 0 C1.05395478 1.62463842 1.09277195 3.24978541 1.125 4.875 C1.14820312 5.77992187 1.17140625 6.68484375 1.1953125 7.6171875 C1 10 1 10 -1 12 C-3.625 11.625 -3.625 11.625 -6 11 C-6 7.7 -6 4.4 -6 1 C-4.35 1 -2.7 1 -1 1 C-0.67 0.67 -0.34 0.34 0 0 Z " fill="#458CCB" transform="translate(73,76)"/>
<path d="M0 0 C2.31 0.33 4.62 0.66 7 1 C7 4.3 7 7.6 7 11 C4.625 11.625 4.625 11.625 2 12 C0 10 0 10 -0.1953125 7.6171875 C-0.17210937 6.71226562 -0.14890625 5.80734375 -0.125 4.875 C-0.10695312 3.96492187 -0.08890625 3.05484375 -0.0703125 2.1171875 C-0.04710937 1.41851562 -0.02390625 0.71984375 0 0 Z " fill="#4A8ECC" transform="translate(167,148)"/>
<path d="M0 0 C2.31 0 4.62 0 7 0 C7 3.3 7 6.6 7 10 C5.0085944 10.38133299 3.00720923 10.71325582 1 11 C0 10 0 10 -0.09765625 7.71484375 C-0.08605469 6.79832031 -0.07445313 5.88179688 -0.0625 4.9375 C-0.05347656 4.01839844 -0.04445313 3.09929687 -0.03515625 2.15234375 C-0.02355469 1.44207031 -0.01195313 0.73179688 0 0 Z " fill="#4F8EC8" transform="translate(127,78)"/>
<path d="M0 0 C2.475 0.495 2.475 0.495 5 1 C5 4.3 5 7.6 5 11 C3.35 11 1.7 11 0 11 C0 7.37 0 3.74 0 0 Z " fill="#38B1D1" transform="translate(168,115)"/>
<path d="M0 0 C2.31 0.33 4.62 0.66 7 1 C7.05380578 3.79192205 7.09357669 6.5828141 7.125 9.375 C7.15013672 10.56609375 7.15013672 10.56609375 7.17578125 11.78125 C7.19335473 13.85492015 7.10335168 15.92883241 7 18 C6.34 18.66 5.68 19.32 5 20 C1.46428571 19.46428571 1.46428571 19.46428571 0 18 C-0.08631874 16.65732587 -0.10706473 15.31025678 -0.09765625 13.96484375 C-0.09443359 13.15595703 -0.09121094 12.34707031 -0.08789062 11.51367188 C-0.07951172 10.66353516 -0.07113281 9.81339844 -0.0625 8.9375 C-0.05798828 8.08349609 -0.05347656 7.22949219 -0.04882812 6.34960938 C-0.03700373 4.23304337 -0.01906769 2.11651315 0 0 Z M2 3 C0.66098208 4.11126659 0.66098208 4.11126659 0.90234375 6.94140625 C0.91394531 8.13636719 0.92554687 9.33132812 0.9375 10.5625 C0.94652344 11.76003906 0.95554687 12.95757812 0.96484375 14.19140625 C0.97644531 15.11824219 0.98804687 16.04507813 1 17 C3.475 17.495 3.475 17.495 6 18 C6 13.05 6 8.1 6 3 C4.68 3 3.36 3 2 3 Z " fill="#4C8BC6" transform="translate(71,149)"/>
<path d="M0 0 C1.32 0 2.64 0 4 0 C4 3.63 4 7.26 4 11 C2.35 10.67 0.7 10.34 -1 10 C-1.02689216 8.52093108 -1.04634621 7.04172517 -1.0625 5.5625 C-1.07410156 4.73878906 -1.08570313 3.91507812 -1.09765625 3.06640625 C-1 1 -1 1 0 0 Z " fill="#38B1D3" transform="translate(43,106)"/>
<path d="M0 0 C1.32 0 2.64 0 4 0 C4 4.62 4 9.24 4 14 C3.67 13.34 3.34 12.68 3 12 C2.01 12 1.02 12 0 12 C0 8.04 0 4.08 0 0 Z " fill="#3890DF" transform="translate(83,80)"/>
<path d="M0 0 C1.65 0.33 3.3 0.66 5 1 C5 5.62 5 10.24 5 15 C2.03 14.505 2.03 14.505 -1 14 C-1.33 14.66 -1.66 15.32 -2 16 C-2.05384521 13.70858714 -2.09272087 11.41681812 -2.125 9.125 C-2.14820312 7.84882812 -2.17140625 6.57265625 -2.1953125 5.2578125 C-2 2 -2 2 0 0 Z M-1 3 C-1 6.3 -1 9.6 -1 13 C0.65 13 2.3 13 4 13 C4 10.03 4 7.06 4 4 C2.35 3.67 0.7 3.34 -1 3 Z " fill="#4EAAC2" transform="translate(73,105)"/>
<path d="M0 0 C1.98 0.495 1.98 0.495 4 1 C4 3.97 4 6.94 4 10 C2.35 10 0.7 10 -1 10 C-1.02689216 8.52093108 -1.04634621 7.04172517 -1.0625 5.5625 C-1.07410156 4.73878906 -1.08570312 3.91507813 -1.09765625 3.06640625 C-1 1 -1 1 0 0 Z " fill="#38B2D1" transform="translate(129,45)"/>
<path d="M0 0 C0.33 0 0.66 0 1 0 C1.02683987 2.97922593 1.04676037 5.95821295 1.0625 8.9375 C1.07087891 9.78763672 1.07925781 10.63777344 1.08789062 11.51367188 C1.09111328 12.32255859 1.09433594 13.13144531 1.09765625 13.96484375 C1.10289307 14.7137085 1.10812988 15.46257324 1.11352539 16.23413086 C1 18 1 18 0 19 C-2.5 19.125 -2.5 19.125 -5 19 C-6 18 -6 18 -6.09765625 15.93359375 C-6.08605469 15.10988281 -6.07445313 14.28617188 -6.0625 13.4375 C-6.05347656 12.61121094 -6.04445313 11.78492188 -6.03515625 10.93359375 C-6.02355469 10.29550781 -6.01195313 9.65742188 -6 9 C-5.67 9 -5.34 9 -5 9 C-5 11.64 -5 14.28 -5 17 C-3.35 17 -1.7 17 0 17 C-0.33 12.71 -0.66 8.42 -1 4 C-2.65 3.67 -4.3 3.34 -6 3 C-6 2.34 -6 1.68 -6 1 C-4.7934375 1.0309375 -4.7934375 1.0309375 -3.5625 1.0625 C-1.06645115 1.29633621 -1.06645115 1.29633621 0 0 Z " fill="#4C89C5" transform="translate(128,148)"/>
<path d="M0 0 C0.99 0.33 1.98 0.66 3 1 C3 4.63 3 8.26 3 12 C1.68 12.33 0.36 12.66 -1 13 C-1.02686553 11.02090602 -1.04633375 9.04171029 -1.0625 7.0625 C-1.07410156 5.96035156 -1.08570313 4.85820313 -1.09765625 3.72265625 C-1 1 -1 1 0 0 Z " fill="#35B2D3" transform="translate(58,101)"/>
<path d="M0 0 C1.32 0 2.64 0 4 0 C4 3.63 4 7.26 4 11 C2.68 11 1.36 11 0 11 C0 7.37 0 3.74 0 0 Z " fill="#3590E4" transform="translate(57,161)"/>
<path d="M0 0 C0.33 0 0.66 0 1 0 C1.02895976 3.12498063 1.04678483 6.2499269 1.0625 9.375 C1.07087891 10.26445312 1.07925781 11.15390625 1.08789062 12.0703125 C1.09111328 12.92109375 1.09433594 13.771875 1.09765625 14.6484375 C1.10289307 15.43395996 1.10812988 16.21948242 1.11352539 17.02880859 C1 19 1 19 0 21 C-1.98 21 -3.96 21 -6 21 C-5.67 19.68 -5.34 18.36 -5 17 C-4.34 17.33 -3.68 17.66 -3 18 C-0.06552643 15.06552643 -0.53841577 11.81740544 -0.375 7.875 C-0.33632813 7.12089844 -0.29765625 6.36679688 -0.2578125 5.58984375 C-0.16348969 3.72696816 -0.08065338 1.86351745 0 0 Z " fill="#33537A" transform="translate(32,127)"/>
<path d="M0 0 C2.5 0.125 2.5 0.125 3.5 1.125 C3.57205511 2.81108966 3.58386068 4.50000659 3.5625 6.1875 C3.55347656 7.10660156 3.54445313 8.02570313 3.53515625 8.97265625 C3.52355469 9.68292969 3.51195313 10.39320312 3.5 11.125 C3.17 11.125 2.84 11.125 2.5 11.125 C2.5 8.485 2.5 5.845 2.5 3.125 C1.18 3.125 -0.14 3.125 -1.5 3.125 C-1.83 6.425 -2.16 9.725 -2.5 13.125 C-2.83 13.125 -3.16 13.125 -3.5 13.125 C-3.52686553 11.14590602 -3.54633375 9.16671029 -3.5625 7.1875 C-3.57410156 6.08535156 -3.58570312 4.98320313 -3.59765625 3.84765625 C-3.46586418 0.17329321 -3.46586418 0.17329321 0 0 Z " fill="#4DACC3" transform="translate(110.5,112.875)"/>
<path d="M0 0 C1.32 0 2.64 0 4 0 C4 3.3 4 6.6 4 10 C2.68 9.67 1.36 9.34 0 9 C0 6.03 0 3.06 0 0 Z " fill="#38B1D2" transform="translate(27,114)"/>
<path d="M0 0 C1.32 0 2.64 0 4 0 C4 5.61 4 11.22 4 17 C3.34 16.67 2.68 16.34 2 16 C1.62109375 12.91015625 1.62109375 12.91015625 1.4375 9.0625 C1.37422259 4.36648058 1.37422259 4.36648058 0 0 Z " fill="#D5F6FD" transform="translate(127,104)"/>
<path d="M0 0 C1.65 0 3.3 0 5 0 C6.14229879 3.42689636 5.90861076 5.61102218 5.5625 9.1875 C5.46066406 10.27417969 5.35882813 11.36085938 5.25390625 12.48046875 C5.12822266 13.72763672 5.12822266 13.72763672 5 15 C4.67 15 4.34 15 4 15 C3.67 11.04 3.34 7.08 3 3 C1.02 3.99 1.02 3.99 -1 5 C-0.67 3.35 -0.34 1.7 0 0 Z " fill="#184675" transform="translate(128,56)"/>
<path d="M0 0 C1.32 0 2.64 0 4 0 C4 2.31 4 4.62 4 7 C2.68 7 1.36 7 0 7 C-0.38133299 5.0085944 -0.71325582 3.00720923 -1 1 C-0.67 0.67 -0.34 0.34 0 0 Z " fill="#3991DF" transform="translate(27,149)"/>
<path d="M0 0 C0.33 0 0.66 0 1 0 C1.02692484 2.29160319 1.04636124 4.58329546 1.0625 6.875 C1.07410156 8.15117187 1.08570313 9.42734375 1.09765625 10.7421875 C1 14 1 14 0 16 C-2.64860427 16.59355614 -5.29197322 16.74209269 -8 17 C-7.67 15.68 -7.34 14.36 -7 13 C-6.195625 13.185625 -5.39125 13.37125 -4.5625 13.5625 C-3.716875 13.706875 -2.87125 13.85125 -2 14 C-0.12175109 12.12175109 -0.60897603 8.96064724 -0.4375 6.4375 C-0.35371094 5.23996094 -0.26992187 4.04242188 -0.18359375 2.80859375 C-0.12300781 1.88175781 -0.06242188 0.95492187 0 0 Z " fill="#E5FAFE" transform="translate(160,154)"/>
<path d="M0 0 C1.32 0.33 2.64 0.66 4 1 C4 3.97 4 6.94 4 10 C3.01 9.67 2.02 9.34 1 9 C1.33 7.35 1.66 5.7 2 4 C1.34 4 0.68 4 0 4 C0 2.68 0 1.36 0 0 Z " fill="#36B2D1" transform="translate(69,44)"/>
<path d="M0 0 C2.625 0.375 2.625 0.375 5 1 C3 3 3 3 0 4 C-0.33 8.29 -0.66 12.58 -1 17 C-1.33 17 -1.66 17 -2 17 C-2.05383848 14.54137599 -2.09359038 12.0839245 -2.125 9.625 C-2.14175781 8.92632812 -2.15851563 8.22765625 -2.17578125 7.5078125 C-2.19344267 5.67102514 -2.10303261 3.83398037 -2 2 C-1.34 1.34 -0.68 0.68 0 0 Z " fill="#74B9CC" transform="translate(83,33)"/>
<path d="M0 0 C1.65 0 3.3 0 5 0 C5 1.98 5 3.96 5 6 C3.35 6 1.7 6 0 6 C0 4.02 0 2.04 0 0 Z " fill="#3990DF" transform="translate(128,81)"/>
<path d="M0 0 C1.32 0 2.64 0 4 0 C4 1.98 4 3.96 4 6 C2.68 6 1.36 6 0 6 C-0.38218767 4.34385343 -0.71395102 2.67542976 -1 1 C-0.67 0.67 -0.34 0.34 0 0 Z " fill="#3890DF" transform="translate(69,79)"/>
<path d="M0 0 C1.32 0.66 2.64 1.32 4 2 C4 3.65 4 5.3 4 7 C2.35 6.67 0.7 6.34 -1 6 C-1.042721 4.33388095 -1.04063832 2.66617115 -1 1 C-0.67 0.67 -0.34 0.34 0 0 Z " fill="#3790DD" transform="translate(139,166)"/>
<path d="M0 0 C0.33 0 0.66 0 1 0 C1.33 5.28 1.66 10.56 2 16 C2.99 16.33 3.98 16.66 5 17 C4.01 17.66 3.02 18.32 2 19 C1.34 18.67 0.68 18.34 0 18 C0 12.06 0 6.12 0 0 Z " fill="#1D3B6A" transform="translate(41,128)"/>
<path d="M0 0 C1.65 0.33 3.3 0.66 5 1 C4.34 2.32 3.68 3.64 3 5 C1.35 4.67 -0.3 4.34 -2 4 C-1.34 2.68 -0.68 1.36 0 0 Z " fill="#184882" transform="translate(69,73)"/>
<path d="M0 0 C0 1.65 0 3.3 0 5 C-1.65 5 -3.3 5 -5 5 C-5 3.68 -5 2.36 -5 1 C-2 0 -2 0 0 0 Z " fill="#154178" transform="translate(133,74)"/>
<path d="M0 0 C0.99 0.495 0.99 0.495 2 1 C2 1.66 2 2.32 2 3 C3.32 3 4.64 3 6 3 C5.67 3.99 5.34 4.98 5 6 C3.35 5.67 1.7 5.34 0 5 C0 3.35 0 1.7 0 0 Z " fill="#5395D3" transform="translate(67,82)"/>
<path d="M0 0 C1.485 0.99 1.485 0.99 3 2 C5.01954441 1.66179847 5.01954441 1.66179847 7 1 C7.99 1 8.98 1 10 1 C10 1.66 10 2.32 10 3 C7.26094655 4.36952673 5.02912668 4.12621361 2 4 C1.34 3.67 0.68 3.34 0 3 C0 2.01 0 1.02 0 0 Z " fill="#E2F5FD" transform="translate(70,166)"/>
<path d="M0 0 C0 2.31 0 4.62 0 7 C-1.32 7 -2.64 7 -4 7 C-4 3 -4 3 -2.5625 1.25 C-1 0 -1 0 0 0 Z " fill="#3A90DF" transform="translate(173,151)"/>
<path d="M0 0 C1.98 0 3.96 0 6 0 C5.67 1.32 5.34 2.64 5 4 C3.35 3.67 1.7 3.34 0 3 C0 2.01 0 1.02 0 0 Z " fill="#174984" transform="translate(41,146)"/>
<path d="M0 0 C2 2 2 2 2 5 C0.35 5.33 -1.3 5.66 -3 6 C-3 5.01 -3 4.02 -3 3 C-2.01 3 -1.02 3 0 3 C0 2.01 0 1.02 0 0 Z " fill="#13437A" transform="translate(76,145)"/>
<path d="M0 0 C1.65 0 3.3 0 5 0 C5 1.32 5 2.64 5 4 C3.02 3.34 1.04 2.68 -1 2 C-0.67 1.34 -0.34 0.68 0 0 Z " fill="#164D78" transform="translate(113,49)"/>
<path d="M0 0 C2.475 0.495 2.475 0.495 5 1 C5 1.99 5 2.98 5 4 C3.35 4 1.7 4 0 4 C0 2.68 0 1.36 0 0 Z " fill="#3BB0D1" transform="translate(87,122)"/>
</svg>
